#!OML:ASF I:\Actors\actors\Patient Classification 2\Patient 1\Session 1\actor1.ASF
:FULLY-SPECIFIED
:DEGREES
265
root -0.77648 18.5963 6.18749 4.23598 7.95686 -2.99283
lowerback 13.7248 1.98367 3.56429
upperback -2.36876 3.38723 1.13477
thorax -10.1588 1.44774 -1.53501
lowerneck -8.98986 14.0832 14.996
upperneck 7.1077 17.3539 -4.49478
head 5.23616 8.69946 -2.19161
rclavicle 4.73108e-014 1.51076e-014
rhumerus -94.5258 12.9812 -103.673
rradius 106.727
rwrist 1.5539
rhand -16.0641 -36.3626
rfingers 7.12502
rthumb 10.1383 -66.0983
lclavicle 4.73108e-014 1.51076e-014
lhumerus -89.0544 -25.378 115
lradius 103.199
lwrist 20.0113
lhand -30.0024 -49.2785
lfingers 7.12502
lthumb -3.31977 -19.3246
rfemur 6.63206 -11.5164 17.0211
rtibia 7.95139e-015
rfoot -15.5711 -10.2811
rtoes -10.385
lfemur -13.9578 -4.36422 -9.81394
ltibia 29.4107
lfoot -19.9909 3.129
ltoes -57.4752
266
root -0.774157 18.5956 6.18335 4.22707 7.86918 -3.01941
lowerback 13.7356 1.98415 3.30531
upperback -2.33302 3.33721 1.08873
thorax -10.1387 1.43834 -1.42819
lowerneck -9.944 12.7871 14.0592
upperneck 7.89946 15.5932 -4.29767
head 5.39454 7.82744 -2.14158
rclavicle 1.88845e-015 1.55052e-014
rhumerus -94.4885 13.1095 -103.732
rradius 106.628
rwrist 1.79792
rhand -15.9733 -36.2773
rfingers 7.12502
rthumb 10.2259 -66.0087
lclavicle 1.88845e-015 1.55052e-014
lhumerus -88.945 -25.1952 114.918
lradius 103.264
lwrist 19.989
lhand -29.9817 -49.3664
lfingers 7.12502
lthumb -3.29981 -19.4122
rfemur 6.60969 -11.4267 17.0419
rtibia 1.59028e-015
rfoot -15.5609 -10.2966
rtoes -10.4179
lfemur -13.9045 -4.38815 -9.8082
ltibia 29.3515
lfoot -20.0447 3.24851
ltoes -57.5686
267
root -0.772551 18.5952 6.17647 4.21523 7.71587 -2.98423
lowerback 13.7771 1.96952 2.86705
upperback -2.2034 3.2364 1.0696
thorax -10.0454 1.41816 -1.17982
lowerneck -11.2283 11.2743 12.4827
upperneck 8.49826 13.5372 -3.51742
head 5.45174 6.81819 -1.8453
rclavicle 2.22639e-014 -1.98785e-016
rhumerus -94.2581 13.4544 -103.772
rradius 106.54
rwrist 1.89778
rhand -15.766 -36.4872
rfingers 7.12502
rthumb 10.4259 -66.2087
lclavicle 2.22639e-014 -1.98785e-016
lhumerus -88.586 -24.9151 114.717
lradius 103.378
lwrist 19.9713
lhand -29.8562 -49.2534
lfingers 7.12502
lthumb -3.17857 -19.2973
rfemur 6.57901 -11.2754 16.9988
rtibia -2.38542e-014
rfoot -15.5578 -10.2865
rtoes -10.199
lfemur -13.8288 -4.3732 -9.87016
ltibia 29.2752
lfoot -20.0506 3.3771
ltoes -57.6722
268
root -0.771884 18.5956 6.16678 4.18937 7.53985 -2.85902
lowerback 13.9105 1.98498 2.33859
upperback -2.11047 3.15845 0.988332
thorax -10.0455 1.40897 -0.957036
lowerneck -12.6766 9.45896 10.3013
upperneck 9.24255 11.1231 -2.11307
head 5.53379 5.65865 -1.28454
rclavicle 4.64659e-015 -1.59028e-015
rhumerus -94.0797 13.6981 -103.807
rradius 106.45
rwrist 1.80981
rhand -15.7454 -36.5594
rfingers 7.12502
rthumb 10.4457 -66.2799
lclavicle 4.64659e-015 -1.59028e-015
lhumerus -88.4113 -24.7062 114.572
lradius 103.55
lwrist 20.0061
lhand -29.731 -49.0806
lfingers 7.12502
lthumb -3.05767 -19.1228
rfemur 6.56295 -11.1063 16.8544
rtibia 3.02153e-014
rfoot -15.5303 -10.2914
rtoes -10.0813
lfemur -13.7297 -4.42276 -10.0306
ltibia 29.1995
lfoot -20.0635 3.5493
ltoes -57.6734
269
root -0.77097 18.5969 6.16084 4.18307 7.43921 -2.81707
lowerback 14.0069 1.97308 1.89655
upperback -2.10418 3.05831 0.894241
thorax -10.1144 1.38209 -0.79161
lowerneck -13.7542 7.39365 8.01422
upperneck 9.90951 8.47868 -0.669266
head 5.60058 4.39404 -0.715728
rclavicle 2.88362e-014 -1.2424e-014
rhumerus -94.1345 13.8348 -103.901
rradius 106.443
rwrist 1.76221
rhand -15.7542 -36.4907
rfingers 7.12502
rthumb 10.4373 -66.2116
lclavicle 2.88362e-014 -1.2424e-014
lhumerus -88.4735 -24.4949 114.489
lradius 103.751
lwrist 20.0845
lhand -29.6972 -49.0777
lfingers 7.12502
lthumb -3.02506 -19.1194
rfemur 6.53682 -11.0082 16.8055
rtibia -1.43125e-014
rfoot -15.4949 -10.3235
rtoes -10.245
lfemur -13.6749 -4.53791 -10.0881
ltibia 29.1347
lfoot -20.1462 3.7046
ltoes -57.5053
270
root -0.769217 18.5979 6.15534 4.21063 7.37298 -2.89495
lowerback 14.0697 1.93524 1.56793
upperback -2.13097 2.94411 0.814963
thorax -10.1949 1.34247 -0.669811
lowerneck -14.355 5.25927 6.16666
upperneck 10.3281 5.80903 0.182254
head 5.63885 3.09161 -0.402206
rclavicle -3.78312e-015 -1.15295e-014
rhumerus -94.2136 13.9589 -104.038
rradius 106.412
rwrist 1.84942
rhand -15.7307 -36.5374
rfingers 7.12502
rthumb 10.4599 -66.2572
lclavicle -3.78312e-015 -1.15295e-014
lhumerus -88.547 -24.2741 114.405
lradius 103.919
lwrist 20.1474
lhand -29.7249 -49.1653
lfingers 7.12502
lthumb -3.05182 -19.2074
rfemur 6.45798 -10.9386 16.8944
rtibia 1.27222e-014
rfoot -15.4651 -10.3565
rtoes -10.4567
lfemur -13.6906 -4.61321 -10.0097
ltibia 29.0906
lfoot -20.2281 3.82293
ltoes -57.3492
271
root -0.765489 18.5981 6.14873 4.207 7.25256 -3.01282
lowerback 14.1638 1.9275 1.27367
upperback -2.12294 2.8758 0.740909
thorax -10.2522 1.32355 -0.572166
lowerneck -14.7541 3.16083 4.41547
upperneck 10.6419 3.20562 0.980391
head 5.68541 1.81975 -0.108485
rclavicle -2.85691e-014 -7.45443e-015
rhumerus -94.1876 14.0771 -104.115
rradius 106.287
rwrist 1.97945
rhand -15.8186 -36.5844
rfingers 7.12502
rthumb 10.3751 -66.3084
lclavicle -2.85691e-014 -7.45443e-015
lhumerus -88.5893 -24.1272 114.355
lradius 104.054
lwrist 20.1483
lhand -29.8024 -49.272
lfingers 7.12502
lthumb -3.12666 -19.3151
rfemur 6.39219 -10.8107 17.0169
rtibia -1.11319e-014
rfoot -15.4202 -10.4033
rtoes -10.5954
lfemur -13.6742 -4.57582 -9.90818
ltibia 29.0764
lfoot -20.2703 3.96614
ltoes -57.4797
272
root -0.758955 18.5981 6.14592 4.15068 7.04579 -3.1923
lowerback 14.2439 1.93054 1.00324
upperback -2.06805 2.82832 0.706714
thorax -10.2499 1.31552 -0.447905
lowerneck -14.9526 1.20037 2.66822
upperneck 10.8109 0.792854 1.88231
head 5.71977 0.646275 0.237314
rclavicle 1.57164e-014 -1.32192e-014
rhumerus -94.1856 14.2922 -104.156
rradius 106.222
rwrist 2.03465
rhand -15.825 -36.5216
rfingers 7.12502
rthumb 10.369 -66.2459
lclavicle 1.57164e-014 -1.32192e-014
lhumerus -88.6306 -23.9325 114.325
lradius 104.236
lwrist 20.0554
lhand -29.8966 -49.284
lfingers 7.12502
lthumb -3.21761 -19.3285
rfemur 6.37835 -10.5902 17.1881
rtibia -2.54444e-014
rfoot -15.3795 -10.454
rtoes -10.5827
lfemur -13.5739 -4.45605 -9.754
ltibia 29.0708
lfoot -20.3599 4.09153
ltoes -57.6278
273
root -0.753354 18.5969 6.14801 4.05364 6.92946 -3.49148
lowerback 14.2818 1.86884 0.865215
upperback -2.00343 2.72042 0.705316
thorax -10.2078 1.27252 -0.347195
lowerneck -14.7471 -0.618331 1.13634
upperneck 10.6807 -1.43607 2.65304
head 5.65295 -0.446091 0.524545
rclavicle -3.15322e-014 -7.55382e-015
rhumerus -94.2185 14.5193 -104.239
rradius 106.203
rwrist 2.02554
rhand -15.8821 -36.3368
rfingers 7.12502
rthumb 10.3139 -66.0639
lclavicle -3.15322e-014 -7.55382e-015
lhumerus -88.6473 -23.7069 114.279
lradius 104.384
lwrist 19.9648
lhand -29.9102 -49.099
lfingers 7.12502
lthumb -3.23073 -19.1438
rfemur 6.43354 -10.4511 17.4849
rtibia 2.06736e-014
rfoot -15.3841 -10.4832
rtoes -10.3546
lfemur -13.4363 -4.40728 -9.45016
ltibia 29.0496
lfoot -20.4819 4.1297
ltoes -57.6113
274
root -0.749091 18.5948 6.15273 3.94796 6.83819 -3.72855
lowerback 14.2893 1.79715 0.663695
upperback -1.92147 2.58658 0.697644
thorax -10.1309 1.22082 -0.21012
lowerneck -14.3731 -2.31953 -0.431515
upperneck 10.4467 -3.5175 3.53034
head 5.57753 -1.4646 0.868879
rclavicle 1.81391e-015 -1.2921e-014
rhumerus -94.2238 14.6851 -104.316
rradius 106.161
rwrist 1.98838
rhand -16.1957 -36.171
rfingers 7.12502
rthumb 10.0114 -65.9129
lclavicle 1.81391e-015 -1.2921e-014
lhumerus -88.6144 -23.5588 114.22
lradius 104.461
lwrist 19.9856
lhand -29.7953 -49.0596
lfingers 7.12502
lthumb -3.11981 -19.1027
rfemur 6.52807 -10.3412 17.7113
rtibia 9.54166e-015
rfoot -15.366 -10.505
rtoes -10.2253
lfemur -13.2632 -4.43922 -9.21152
ltibia 29.0137
lfoot -20.5915 4.18957
ltoes -57.5533
